<?xml version="1.0" standalone="no"?>
<!DOCTYPE svg PUBLIC "-//W3C//DTD SVG 20010904//EN"
 "http://www.w3.org/TR/2001/REC-SVG-20010904/DTD/svg10.dtd">
<svg version="1.0" xmlns="http://www.w3.org/2000/svg"
 width="16.000000pt" height="16.000000pt" viewBox="0 0 16.000000 16.000000"
 preserveAspectRatio="xMidYMid meet">
<metadata>
Created by potrace 1.11, written by Peter Selinger 2001-2013
</metadata>
<g transform="translate(0.000000,16.000000) scale(0.017978,-0.017978)"
fill="#000000" stroke="none">
<path d="M84 798 c35 -51 104 -151 154 -222 l90 -130 -90 -130 c-49 -72 -118
-173 -154 -223 l-64 -93 115 0 116 0 122 188 c68 103 132 203 144 222 l22 36
-62 90 c-34 49 -102 149 -152 221 l-90 132 -107 1 -108 0 64 -92z"/>
<path d="M595 838 c-22 -29 -52 -68 -67 -88 l-27 -36 55 -72 c30 -40 58 -72
62 -72 4 0 24 21 43 48 20 26 75 98 123 160 l86 112 -117 0 -118 -1 -40 -51z"/>
<path d="M590 268 c-25 -33 -51 -68 -58 -77 -10 -15 -8 -24 19 -57 69 -87 79
-100 91 -117 12 -15 27 -17 119 -15 l105 3 -112 159 c-63 87 -115 160 -116
161 -2 2 -23 -24 -48 -57z"/>
</g>
</svg>
